<?xml version="1.0" encoding="utf-8"?>
<!-- Generator: Adobe Illustrator 17.0.0, SVG Export Plug-In . SVG Version: 6.00 Build 0)  -->
<!DOCTYPE svg PUBLIC "-//W3C//DTD SVG 1.1//EN" "http://www.w3.org/Graphics/SVG/1.1/DTD/svg11.dtd">
<svg version="1.1" id="Layer_1" xmlns="http://www.w3.org/2000/svg" xmlns:xlink="http://www.w3.org/1999/xlink" x="0px" y="0px"
	 width="1280px" height="800px" viewBox="0 0 1280 800" enable-background="new 0 0 1280 800" xml:space="preserve">
<g>
	<g>
		<path fill="#548BEA" d="M200.384,593.181c-44.362-23.866-79.272-56.904-104.635-99.3c-25.363-42.303-38.092-90.129-38.092-143.569
			c0-53.347,12.728-101.172,38.092-143.476s60.273-75.435,104.635-99.3s94.247-35.752,149.653-35.752
			c46.702,0,88.912,8.236,126.629,24.615s69.351,40.057,94.995,70.849l-80.021,73.844c-36.407-42.023-81.612-63.081-135.427-63.081
			c-33.319,0-63.081,7.3-89.286,21.9s-46.515,35.003-61.209,61.209c-14.6,26.206-21.9,55.968-21.9,89.286s7.3,63.081,21.9,89.286
			s35.003,46.515,61.209,61.209c26.206,14.6,55.874,21.9,89.286,21.9c53.909,0,99.02-21.245,135.427-63.829l80.021,73.844
			c-25.644,31.26-57.465,55.125-95.463,71.597c-37.998,16.379-80.301,24.615-127.004,24.615
			C294.35,629.027,244.746,804.23,200.384,593.181z"/>
	</g>
	<circle fill="#FFA91F" cx="351.534" cy="348.44" r="93.591"/>
</g>
<text transform="matrix(0.7089 0 0 1 571.6613 483.7418)"><tspan x="0" y="0" fill="#548BEA" font-family="'MVBoli'" font-size="361.2795">EP</tspan><tspan x="455.304" y="0" fill="#FFA91F" font-family="'MVBoli'" font-size="361.2795">O</tspan><tspan x="712.504" y="0" fill="#548BEA" font-family="'MVBoli'" font-size="361.2795">S</tspan></text>
</svg>
