<?xml version="1.0" encoding="UTF-8"?>
<svg width="163px" height="22px" viewBox="0 0 163 22" version="1.1" xmlns="http://www.w3.org/2000/svg" xmlns:xlink="http://www.w3.org/1999/xlink">
    <!-- Generator: Sketch 55.2 (78181) - https://sketchapp.com -->
    <title>logo</title>
    <desc>Created with Sketch.</desc>
    <defs>
        <linearGradient x1="50%" y1="100%" x2="50%" y2="3.061617e-15%" id="linearGradient-1">
            <stop stop-color="#FE7795" offset="0%"></stop>
            <stop stop-color="#FFBA97" offset="100%"></stop>
        </linearGradient>
    </defs>
    <g id="Simple--Design-UIKIts" stroke="none" stroke-width="1" fill="none" fill-rule="evenodd">
        <g id="logo" fill="#FFFFFF" fill-rule="nonzero">
            <g id="pie-chart">
                <g id="path-2-link">
                    <path d="M18.6466667,12.2573333 L19.9773334,12.3466667 C19.6266667,17.5733334 15.244,21.6666667 9.99999996,21.6666667 C4.48533331,21.6666667 -4.16666808e-08,17.1813334 -4.16666808e-08,11.6666667 C-4.16666808e-08,6.45999998 4.06266664,2.07999996 9.25066666,1.69466663 L9.34933333,3.02399997 C4.85466665,3.3573333 1.3333333,7.15333332 1.3333333,11.6666667 C1.3333333,16.4453334 5.22133331,20.3333334 9.99999996,20.3333334 C14.5453334,20.3333334 18.3426667,16.7866667 18.6466667,12.2573333 Z M21.3333334,10.332 L21.3333334,10.9986667 L20.6653334,11.0213333 L10.6893333,11.0213333 L10.6893333,0.331999956 L11.3573333,0.333333289 C16.8586667,0.345333289 21.3333334,4.83199996 21.3333334,10.332 Z M19.9813334,9.68799999 C19.684,5.46133331 16.28,2.03066663 12.0226667,1.69466663 L12.0226667,9.68799999 L19.9813334,9.68799999 Z" id="path-2"></path>
                </g>
            </g>
            <path d="M44.26,4 L38.12,18 L36.14,18 L29.98,4 L32.14,4 L37.18,15.5 L42.26,4 L44.26,4 Z M49.92,7.3 C51.386674,7.3 52.5099961,7.6599964 53.29,8.38 C54.0700039,9.1000036 54.46,10.1733262 54.46,11.6 L54.46,18 L52.64,18 L52.64,16.6 C52.3199984,17.0933358 51.8633363,17.4699987 51.27,17.73 C50.6766637,17.9900013 49.9733374,18.12 49.16,18.12 C47.9733274,18.12 47.0233369,17.8333362 46.31,17.26 C45.5966631,16.6866638 45.24,15.933338 45.24,15 C45.24,14.066662 45.5799966,13.3166695 46.26,12.75 C46.9400034,12.1833305 48.0199926,11.9 49.5,11.9 L52.54,11.9 L52.54,11.52 C52.54,10.6933292 52.3000024,10.0600022 51.82,9.62 C51.3399976,9.1799978 50.633338,8.96 49.7,8.96 C49.0733302,8.96 48.460003,9.0633323 47.86,9.27 C47.259997,9.4766677 46.7533354,9.7533316 46.34,10.1 L45.54,8.66 C46.0866694,8.2199978 46.74,7.8833345 47.5,7.65 C48.2600038,7.4166655 49.0666624,7.3 49.92,7.3 Z M49.48,16.64 C50.213337,16.64 50.846664,16.4766683 51.38,16.15 C51.913336,15.8233317 52.2999988,15.360003 52.54,14.76 L52.54,13.28 L49.58,13.28 C47.9533252,13.28 47.14,13.8266612 47.14,14.92 C47.14,15.453336 47.3466646,15.8733318 47.76,16.18 C48.1733354,16.4866682 48.746663,16.64 49.48,16.64 Z M63.68,7.3 C65.0266734,7.3 66.0966627,7.6899961 66.89,8.47 C67.6833373,9.2500039 68.08,10.3933258 68.08,11.9 L68.08,18 L66.16,18 L66.16,12.12 C66.16,11.0933282 65.9133358,10.3200026 65.42,9.8 C64.9266642,9.2799974 64.2200046,9.02 63.3,9.02 C62.2599948,9.02 61.440003,9.3233303 60.84,9.93 C60.239997,10.5366697 59.94,11.406661 59.94,12.54 L59.94,18 L58.02,18 L58.02,7.4 L59.86,7.4 L59.86,9 C60.2466686,8.4533306 60.7699967,8.0333348 61.43,7.74 C62.0900033,7.4466652 62.8399958,7.3 63.68,7.3 Z M77.6,17.38 C77.3199986,17.6200012 76.9733354,17.8033327 76.56,17.93 C76.1466646,18.0566673 75.7200022,18.12 75.28,18.12 C74.213328,18.12 73.3866696,17.8333362 72.8,17.26 C72.2133304,16.6866638 71.92,15.866672 71.92,14.8 L71.92,8.98 L70.12,8.98 L70.12,7.4 L71.92,7.4 L71.92,5.08 L73.84,5.08 L73.84,7.4 L76.88,7.4 L76.88,8.98 L73.84,8.98 L73.84,14.72 C73.84,15.2933362 73.9833319,15.7333318 74.27,16.04 C74.5566681,16.3466682 74.966664,16.5 75.5,16.5 C76.0866696,16.5 76.5866646,16.333335 77,16 L77.6,17.38 Z M83.78,7.3 C85.246674,7.3 86.3699961,7.6599964 87.15,8.38 C87.9300039,9.1000036 88.32,10.1733262 88.32,11.6 L88.32,18 L86.5,18 L86.5,16.6 C86.1799984,17.0933358 85.7233363,17.4699987 85.13,17.73 C84.5366637,17.9900013 83.8333374,18.12 83.02,18.12 C81.8333274,18.12 80.8833369,17.8333362 80.17,17.26 C79.4566631,16.6866638 79.1,15.933338 79.1,15 C79.1,14.066662 79.4399966,13.3166695 80.12,12.75 C80.8000034,12.1833305 81.8799926,11.9 83.36,11.9 L86.4,11.9 L86.4,11.52 C86.4,10.6933292 86.1600024,10.0600022 85.68,9.62 C85.1999976,9.1799978 84.493338,8.96 83.56,8.96 C82.9333302,8.96 82.320003,9.0633323 81.72,9.27 C81.119997,9.4766677 80.6133354,9.7533316 80.2,10.1 L79.4,8.66 C79.9466694,8.2199978 80.6,7.8833345 81.36,7.65 C82.1200038,7.4166655 82.9266624,7.3 83.78,7.3 Z M83.34,16.64 C84.073337,16.64 84.706664,16.4766683 85.24,16.15 C85.773336,15.8233317 86.1599988,15.360003 86.4,14.76 L86.4,13.28 L83.44,13.28 C81.8133252,13.28 81,13.8266612 81,14.92 C81,15.453336 81.2066646,15.8733318 81.62,16.18 C82.0333354,16.4866682 82.606663,16.64 83.34,16.64 Z M106.46,14.5 L99.02,14.5 L97.48,18 L95.42,18 L101.76,4 L103.74,4 L110.1,18 L108,18 L106.46,14.5 Z M105.76,12.9 L102.74,6.04 L99.72,12.9 L105.76,12.9 Z M121.9,3.16 L121.9,18 L120.06,18 L120.06,16.32 C119.633331,16.9066696 119.093337,17.3533318 118.44,17.66 C117.786663,17.9666682 117.066671,18.12 116.28,18.12 C115.253328,18.12 114.333337,17.8933356 113.52,17.44 C112.706663,16.9866644 112.070002,16.3500041 111.61,15.53 C111.149998,14.7099959 110.92,13.766672 110.92,12.7 C110.92,11.633328 111.149998,10.6933374 111.61,9.88 C112.070002,9.0666626 112.706663,8.4333356 113.52,7.98 C114.333337,7.5266644 115.253328,7.3 116.28,7.3 C117.040004,7.3 117.739997,7.4433319 118.38,7.73 C119.020003,8.0166681 119.553331,8.4399972 119.98,9 L119.98,3.16 L121.9,3.16 Z M116.44,16.44 C117.10667,16.44 117.713331,16.2833349 118.26,15.97 C118.806669,15.6566651 119.233332,15.2166695 119.54,14.65 C119.846668,14.0833305 120,13.433337 120,12.7 C120,11.966663 119.846668,11.3166695 119.54,10.75 C119.233332,10.1833305 118.806669,9.7466682 118.26,9.44 C117.713331,9.1333318 117.10667,8.98 116.44,8.98 C115.759997,8.98 115.150003,9.1333318 114.61,9.44 C114.069997,9.7466682 113.643335,10.1833305 113.33,10.75 C113.016665,11.3166695 112.86,11.966663 112.86,12.7 C112.86,13.433337 113.016665,14.0833305 113.33,14.65 C113.643335,15.2166695 114.069997,15.6566651 114.61,15.97 C115.150003,16.2833349 115.759997,16.44 116.44,16.44 Z M138.8,7.3 C140.13334,7.3 141.189996,7.6866628 141.97,8.46 C142.750004,9.2333372 143.14,10.3799924 143.14,11.9 L143.14,18 L141.22,18 L141.22,12.12 C141.22,11.0933282 140.983336,10.3200026 140.51,9.8 C140.036664,9.2799974 139.360004,9.02 138.48,9.02 C137.506662,9.02 136.733336,9.3233303 136.16,9.93 C135.586664,10.5366697 135.3,11.406661 135.3,12.54 L135.3,18 L133.38,18 L133.38,12.12 C133.38,11.0933282 133.143336,10.3200026 132.67,9.8 C132.196664,9.2799974 131.520004,9.02 130.64,9.02 C129.666662,9.02 128.893336,9.3233303 128.32,9.93 C127.746664,10.5366697 127.46,11.406661 127.46,12.54 L127.46,18 L125.54,18 L125.54,7.4 L127.38,7.4 L127.38,8.98 C127.766669,8.4333306 128.27333,8.0166681 128.9,7.73 C129.52667,7.4433319 130.239996,7.3 131.04,7.3 C131.866671,7.3 132.599997,7.466665 133.24,7.8 C133.880003,8.133335 134.373332,8.6199968 134.72,9.26 C135.120002,8.6466636 135.676663,8.1666684 136.39,7.82 C137.103337,7.4733316 137.906662,7.3 138.8,7.3 Z M146.68,7.4 L148.6,7.4 L148.6,18 L146.68,18 L146.68,7.4 Z M147.64,5.36 C147.266665,5.36 146.956668,5.2400012 146.71,5 C146.463332,4.7599988 146.34,4.4666684 146.34,4.12 C146.34,3.7733316 146.463332,3.4766679 146.71,3.23 C146.956668,2.9833321 147.266665,2.86 147.64,2.86 C148.013335,2.86 148.323332,2.9766655 148.57,3.21 C148.816668,3.4433345 148.94,3.7333316 148.94,4.08 C148.94,4.4400018 148.816668,4.7433321 148.57,4.99 C148.323332,5.2366679 148.013335,5.36 147.64,5.36 Z M157.92,7.3 C159.266673,7.3 160.336663,7.6899961 161.13,8.47 C161.923337,9.2500039 162.32,10.3933258 162.32,11.9 L162.32,18 L160.4,18 L160.4,12.12 C160.4,11.0933282 160.153336,10.3200026 159.66,9.8 C159.166664,9.2799974 158.460005,9.02 157.54,9.02 C156.499995,9.02 155.680003,9.3233303 155.08,9.93 C154.479997,10.5366697 154.18,11.406661 154.18,12.54 L154.18,18 L152.26,18 L152.26,7.4 L154.1,7.4 L154.1,9 C154.486669,8.4533306 155.009997,8.0333348 155.67,7.74 C156.330003,7.4466652 157.079996,7.3 157.92,7.3 Z" id="VantaAdmin"></path>
        </g>
    </g>
</svg>