<?xml version="1.0" encoding="UTF-8"?>
<svg width="22px" height="22px" viewBox="0 0 22 22" version="1.1" xmlns="http://www.w3.org/2000/svg" xmlns:xlink="http://www.w3.org/1999/xlink">
    <!-- Generator: Sketch 55.2 (78181) - https://sketchapp.com -->
    <title>Logomini_vanta</title>
    <desc>Created with Sketch.</desc>
    <defs>
        <linearGradient x1="50%" y1="100%" x2="50%" y2="3.061617e-15%" id="linearGradient-1">
            <stop stop-color="#FE7795" offset="0%"></stop>
            <stop stop-color="#FFBA97" offset="100%"></stop>
        </linearGradient>
    </defs>
    <g id="Simple--Design-UIKIts" stroke="none" stroke-width="1" fill="none" fill-rule="evenodd">
        <g id="logo" fill="#FFFFFF" fill-rule="nonzero">
            <g id="Logomini_vanta">
                <g id="path-2-link">
                    <path d="M18.6466667,12.2573333 L19.9773334,12.3466667 C19.6266667,17.5733334 15.244,21.6666667 9.99999996,21.6666667 C4.48533331,21.6666667 -4.16666808e-08,17.1813334 -4.16666808e-08,11.6666667 C-4.16666808e-08,6.45999998 4.06266664,2.07999996 9.25066666,1.69466663 L9.34933333,3.02399997 C4.85466665,3.3573333 1.3333333,7.15333332 1.3333333,11.6666667 C1.3333333,16.4453334 5.22133331,20.3333334 9.99999996,20.3333334 C14.5453334,20.3333334 18.3426667,16.7866667 18.6466667,12.2573333 Z M21.3333334,10.332 L21.3333334,10.9986667 L20.6653334,11.0213333 L10.6893333,11.0213333 L10.6893333,0.331999956 L11.3573333,0.333333289 C16.8586667,0.345333289 21.3333334,4.83199996 21.3333334,10.332 Z M19.9813334,9.68799999 C19.684,5.46133331 16.28,2.03066663 12.0226667,1.69466663 L12.0226667,9.68799999 L19.9813334,9.68799999 Z" id="path-2"></path>
                </g>
            </g>
        </g>
    </g>
</svg>