<svg id="Layer_1" data-name="Layer 1" xmlns="http://www.w3.org/2000/svg" viewBox="0 0 48 48"><defs><style>.cls-1{fill:#ad8cc1;}.cls-2{fill:#382160;}.cls-3{fill:#67408e;}.cls-4{fill:#845ca6;}.cls-5{fill:#58c3bb;}.cls-6{fill:#fff;}.cls-7{fill:#af91c2;}.cls-8{fill:#49336b;}.cls-9{fill:#714f96;}.cls-10{fill:#8b67ab;}.cls-11{fill:#6ebfbe;}.cls-12{fill:#f2eff5;}</style></defs><title>mdpi</title><path class="cls-1" d="M43.38,37.37,25.4,47.5a3.28,3.28,0,0,1-3.29,0L4.35,37A3.3,3.3,0,0,1,2.73,34.1l.21-20.64a3.33,3.33,0,0,1,1.68-2.83L22.6.5a3.28,3.28,0,0,1,3.29,0L43.65,11a3.3,3.3,0,0,1,1.62,2.87l-.22,20.64a3.3,3.3,0,0,1-1.67,2.83"/><path class="cls-2" d="M39.94,35,25.15,43.34a2.73,2.73,0,0,1-2.71,0L7.83,34.67A2.71,2.71,0,0,1,6.5,32.31l.18-17A2.68,2.68,0,0,1,8.06,13L22.84,4.66a2.75,2.75,0,0,1,2.72,0l14.61,8.64a2.71,2.71,0,0,1,1.33,2.36l-.18,17A2.68,2.68,0,0,1,39.94,35"/><path class="cls-3" d="M36.78,32.82,24.93,39.5a2.15,2.15,0,0,1-2.18,0L11,32.55A2.15,2.15,0,0,1,10,30.66l.14-13.61a2.17,2.17,0,0,1,1.11-1.87L23.07,8.5a2.15,2.15,0,0,1,2.18,0L37,15.45A2.15,2.15,0,0,1,38,17.34L37.89,31a2.17,2.17,0,0,1-1.11,1.87"/><path class="cls-4" d="M33.56,30.6l-8.87,5a1.62,1.62,0,0,1-1.62,0L14.31,30.4a1.63,1.63,0,0,1-.8-1.42l.1-10.18a1.66,1.66,0,0,1,.83-1.4l8.87-5a1.62,1.62,0,0,1,1.62,0l8.76,5.18a1.63,1.63,0,0,1,.8,1.42L34.38,29.2a1.63,1.63,0,0,1-.82,1.4"/><path class="cls-5" d="M24.68,24.11A5,5,0,1,0,22,30.53a4.94,4.94,0,0,0,2.72-6.42m-5.92-1.86c1.76-.62,4,.24,4.53,1.78l-.79.34c-1.59.67-4.58,1.91-6.22,2.65a4,4,0,0,1,2.48-4.77m2.9,7.28a4,4,0,0,1-5-1.6c.75-.25,2.6-1.08,3.18-1.33L23.71,25c.74,1.51-.3,3.74-2.05,4.55"/><path class="cls-5" d="M30.52,15.54a3.86,3.86,0,0,0-5.1,2.12q-2.05,4.92-4,9.9a3.57,3.57,0,0,0,.64,3.86c2.27,2.21,5.51,1.58,6.6-1s2-4.86,3-7.3c.34-.82.68-1.65,1-2.48a3.9,3.9,0,0,0-2.1-5.12M27.58,30a2.73,2.73,0,0,1-5.08-2c.52-1.41,1.13-2.79,1.68-4.2.13-.35.31-.35.59-.23l2.1.85c.31.12,1.81.75,2.57,1L27.58,30m4-9.89q-.9,2.27-1.81,4.53l-.29-.1L24.66,22.6C25.3,21,25.88,19.51,26.53,18a2.73,2.73,0,0,1,3.56-1.39,2.69,2.69,0,0,1,1.48,3.48"/><path class="cls-5" d="M28.41,26.24,24.5,24.67c-.5,1.36-1.06,2.65-1.45,4a2,2,0,0,0,1.37,2.17,2,2,0,0,0,2.46-.95c.56-1.16,1-2.37,1.53-3.64"/><path class="cls-5" d="M25.73,22l3.9,1.57c.51-1.36,1.07-2.65,1.45-4a1.94,1.94,0,0,0-1.37-2.17,2,2,0,0,0-2.45.95c-.57,1.16-1,2.37-1.53,3.64"/><path class="cls-6" d="M21,22.26c0-1.1,0-2.13,0-3.16h.38a5.66,5.66,0,0,1,.83,0,.9.9,0,0,1,.7.89v1.35a4.18,4.18,0,0,1,3.68.44A4.24,4.24,0,0,1,31,21.7a2.13,2.13,0,0,1,1.11,1.65,6,6,0,0,1,.09,1.12c0,1.34,0,2.69,0,4,0,.08,0,.16,0,.29a10.88,10.88,0,0,1-1.29-.09.81.81,0,0,1-.62-.87c0-1.28,0-2.56,0-3.84a1.18,1.18,0,0,0-.9-1.24,1.41,1.41,0,0,0-1.68.64,2,2,0,0,0-.11.65c0,1.48,0,3,0,4.44v.25H25.59v-.22c0-1.51,0-3,0-4.52a1.14,1.14,0,0,0-.89-1.24A1.33,1.33,0,0,0,22.91,24c0,.72,0,1.43-.05,2.14a2.44,2.44,0,0,1-1.08,2,4.3,4.3,0,0,1-1.47.6,4.66,4.66,0,0,1-2.43-.09,2.45,2.45,0,0,1-1.68-1.6,5.43,5.43,0,0,1,0-4.08,2.75,2.75,0,0,1,3.55-1.71,2.31,2.31,0,0,1,1.08.8l.15.2M17.75,25A3.33,3.33,0,0,0,18,26.42a1.47,1.47,0,0,0,1.43.84,1.33,1.33,0,0,0,1.3-.89,4.11,4.11,0,0,0,.23-1,3.26,3.26,0,0,0-.28-1.87,1.52,1.52,0,0,0-2.49-.2A2.64,2.64,0,0,0,17.75,25"/><path class="cls-7" d="M23.17,43.61l-.08,4.07.91,0,.09-4-.27,0a3,3,0,0,1-.65-.08M3.61,12l-.42.87,3.53,2A2.56,2.56,0,0,1,7.06,14L3.61,12m40.78,0-3.48,2a2.81,2.81,0,0,1,.46.85l3.44-1.93L44.39,12"/><path class="cls-8" d="M23.26,39.7l-.09,3.91a3,3,0,0,0,.65.08l.27,0,.08-3.91a1.62,1.62,0,0,1-.31,0,2,2,0,0,1-.6-.08M40.91,14,37.5,15.9a2.08,2.08,0,0,1,.45.84l3.42-1.91a2.81,2.81,0,0,0-.46-.85M7.06,14a2.56,2.56,0,0,0-.34.91l3.41,1.91a2.1,2.1,0,0,1,.34-.91L7.06,14"/><path class="cls-9" d="M23.34,35.7l-.08,4a2,2,0,0,0,.6.08,1.62,1.62,0,0,0,.31,0l.08-4a1.37,1.37,0,0,1-.36,0,1.52,1.52,0,0,1-.55-.1M37.5,15.9l-3.49,2a1.6,1.6,0,0,1,.45.85l3.49-2a2.08,2.08,0,0,0-.45-.84m-27,0a2.1,2.1,0,0,0-.34.91l3.49,1.95a1.56,1.56,0,0,1,.33-.91l-3.48-1.95"/><path class="cls-10" d="M23.41,32.36l-.07,3.34a1.52,1.52,0,0,0,.55.1,1.37,1.37,0,0,0,.36,0l.07-3.09a4.08,4.08,0,0,1-.91-.31m.05-2.19,0,.94a2.52,2.52,0,0,0,.6.34l.3.1,0-.74a2.22,2.22,0,0,1-.9-.64M23.71,25h0l-.15.35,0,1.91c.14-.38.28-.76.43-1.14A2.38,2.38,0,0,0,23.71,25m.79-1.48-.1,0c.1.19.19.38.28.59l0,.05L25,24l.36-.2-.57-.23a.77.77,0,0,0-.27-.07m-1.49,0a1.32,1.32,0,0,0-.09.3l.11-.27,0,0m-2.08-1.31.08.11v-.09l-.08,0m10.83-3-.67.38v0c-.12.43-.27.87-.42,1.3l.8-.46.11-.26a2.73,2.73,0,0,0,.19-1M34,17.85l-1.15.64a3.91,3.91,0,0,1,0,1.08l1.57-.87a1.6,1.6,0,0,0-.45-.85M14,17.83a1.56,1.56,0,0,0-.33.91L18,21.21a2.88,2.88,0,0,1,.78-.11H19a4.72,4.72,0,0,1,.64-.1L14,17.83"/><path class="cls-11" d="M24.4,23.52c-.09,0-.16.12-.22.28-.16.39-.31.79-.47,1.18h0A2.38,2.38,0,0,1,24,26.1l.54-1.39v-.43l.21-.12,0-.05c-.09-.21-.18-.4-.28-.59m-1.25-.31a1.23,1.23,0,0,0-.14.25l0,0,.12-.28M19.63,21a4.72,4.72,0,0,0-.64.1,2.76,2.76,0,0,1,.79.15,2.31,2.31,0,0,1,1.08.8l.07.09.08,0v-.39L19.63,21"/><path class="cls-11" d="M23.44,31.11l0,1.25a4.08,4.08,0,0,0,.91.31l0-1.12-.3-.1a2.52,2.52,0,0,1-.6-.34M25,22.88l-.52.29-.52.29-.39-.22-.33-.19a1.83,1.83,0,0,0-.13.16l-.12.28-.11.27c0,.06,0,.12,0,.18L23,24l.56.33v1l.15-.35c.16-.39.31-.79.47-1.18.06-.16.13-.25.22-.28l.1,0a.77.77,0,0,1,.27.07l.57.23.25-.13a1.05,1.05,0,0,0-.55-.79m7.82-4.39-1.1.62a2.73,2.73,0,0,1-.19,1l-.11.26,1.43-.8a3.91,3.91,0,0,0,0-1.08"/><path class="cls-11" d="M24.49,24.71,24,26.1c-.15.38-.29.76-.43,1.14l-.06,2.93a2.22,2.22,0,0,0,.9.64l.13-6v-.12"/><path class="cls-11" d="M31.09,19.49l-3.17,1.77a4.4,4.4,0,0,1,.95-.11,4.19,4.19,0,0,1,1,.12l.8-.44c.15-.43.3-.87.42-1.3v0"/><path class="cls-12" d="M28.87,21.15a4.4,4.4,0,0,0-.95.11L25,22.88a1.05,1.05,0,0,1,.55.79l4.27-2.4a4.19,4.19,0,0,0-1-.12m-10,0a2.88,2.88,0,0,0-.78.11l4.87,2.73c0-.06,0-.12,0-.18a1.32,1.32,0,0,1,.09-.3,1.23,1.23,0,0,1,.14-.25,1.83,1.83,0,0,1,.13-.16L21,21.78v.48l-.08-.11-.07-.09a2.31,2.31,0,0,0-1.08-.8,2.76,2.76,0,0,0-.79-.15h-.17"/></svg>